<svg width="46" height="40" viewBox="0 0 46 40" fill="none" xmlns="http://www.w3.org/2000/svg">
<path d="M45.6659 26.8834C45.6659 33.8031 40.0564 39.4127 33.1366 39.4127L14.3428 39.4127C12.4206 39.4127 10.8624 37.8545 10.8624 35.9323L10.8624 12.2659C10.8624 8.42166 13.9788 5.30525 17.8231 5.30525L42.1856 5.30526C44.1077 5.30526 45.6659 6.86346 45.6659 8.7856L45.6659 26.8834Z" fill="#E8F5E9"/>
<path d="M20.1283 16.8911C19.9607 16.8911 19.8051 16.845 19.6668 16.7709V16.7728C19.6668 17.0365 19.5643 17.2842 19.3784 17.4697C19.1924 17.6556 18.945 17.7581 18.6816 17.7581C18.5115 17.7581 18.3539 17.7109 18.2142 17.6348C18.2001 17.876 18.1036 18.1015 17.9316 18.2737C17.7456 18.4597 17.4982 18.5622 17.2346 18.5622C16.711 18.5622 16.2857 18.1506 16.2551 17.6346C16.0931 17.7222 15.9099 17.7681 15.721 17.756C15.2058 17.7222 14.8024 17.2771 14.8024 16.7425V12.3109L14.2978 13.1851C14.1056 13.5195 13.7458 13.7271 13.3585 13.7271C13.1697 13.7271 12.9832 13.6776 12.8181 13.583C12.6125 13.4637 12.4654 13.2724 12.4042 13.0434C12.3427 12.8143 12.3745 12.5747 12.4934 12.3694C12.4936 12.3694 14.1445 9.51048 14.2452 9.33487C14.2572 9.30847 14.2913 9.23188 14.3203 9.16661C14.348 9.1043 14.3718 9.04034 14.3946 8.97605C14.8925 7.57049 16.1252 6.69739 17.612 6.69739C19.5426 6.69739 21.1134 8.4006 21.1134 10.4942L21.1135 15.9057C21.1135 16.169 21.0112 16.4165 20.8254 16.6026C20.6394 16.7886 20.392 16.8911 20.1283 16.8911L20.1283 16.8911ZM17.612 7.22093C16.3345 7.22093 15.3162 7.94252 14.8881 9.15114C14.8607 9.22789 14.8321 9.30464 14.7988 9.37942C14.7023 9.59606 14.7023 9.59606 14.675 9.62721L14.6714 9.6241C14.5366 9.87845 14.1362 10.572 12.9467 12.6314C12.8978 12.7159 12.8849 12.8139 12.9098 12.9077C12.9351 13.0015 12.9956 13.0806 13.0794 13.1289C13.3395 13.2783 13.6957 13.1819 13.8439 12.9236L14.8376 11.2033C14.8969 11.1008 15.017 11.0505 15.1321 11.0817C15.2466 11.1123 15.3261 11.2161 15.3261 11.3345V16.7427C15.3261 16.9978 15.5186 17.2181 15.7553 17.2336C15.8917 17.2409 16.019 17.1951 16.1146 17.0997C16.2015 17.0127 16.2494 16.897 16.2494 16.7731V13.2362C16.2494 13.0915 16.3666 12.9743 16.5113 12.9743C16.6559 12.9743 16.7732 13.0914 16.7732 13.2362L16.773 17.5771C16.773 17.8316 16.9801 18.0387 17.2346 18.0387C17.3583 18.0387 17.4744 17.9909 17.5615 17.9039C17.6484 17.8169 17.6963 17.7008 17.6963 17.5771V13.2362C17.6963 13.0915 17.8134 12.9743 17.9582 12.9743C18.1028 12.9743 18.2201 13.0914 18.2201 13.2362L18.2199 16.7325V16.7731C18.2199 17.0275 18.427 17.2346 18.6817 17.2346C18.8052 17.2346 18.921 17.1866 19.0086 17.0993C19.0955 17.0126 19.1434 16.8968 19.1434 16.773V13.236C19.1434 13.0913 19.2604 12.9741 19.4053 12.9741C19.5499 12.9741 19.6671 13.0912 19.6671 13.236L19.6668 15.9058C19.6668 16.1605 19.8739 16.3676 20.1283 16.3676C20.2521 16.3676 20.3679 16.3195 20.4548 16.2328C20.542 16.1455 20.5898 16.0294 20.5898 15.9058L20.5899 10.4943C20.5899 8.68957 19.2541 7.22099 17.612 7.22099L17.612 7.22093Z" fill="#103E13"/>
<path d="M9.83862 20.6523L13.639 18.3724C14.0972 18.0972 14.6867 18.2142 14.9806 18.6387C15.0878 18.7934 15.1426 18.9736 15.1511 19.1571C15.2928 19.0832 15.447 19.043 15.6039 19.043C15.6843 19.043 15.765 19.053 15.8447 19.0728C16.1 19.1366 16.3151 19.2962 16.4505 19.5218C16.5859 19.7478 16.6254 20.0127 16.5616 20.2677C16.5028 20.5037 16.3593 20.7023 16.1597 20.8386C16.2993 20.9209 16.4196 21.0332 16.5052 21.1762C16.6407 21.4022 16.6802 21.6669 16.6166 21.9223C16.5528 22.1773 16.3932 22.3924 16.1672 22.5281L16.1659 22.5289C16.303 22.611 16.4213 22.7222 16.5059 22.8631C16.6415 23.0891 16.681 23.3539 16.6172 23.6092C16.5533 23.8644 16.3937 24.0796 16.1681 24.215L11.5278 26.9988C10.6617 27.5182 9.66056 27.6974 8.70908 27.5031C7.74907 27.307 6.95402 26.7552 6.47059 25.9493C5.70555 24.6742 5.82021 23.1678 6.76922 22.018C6.81268 21.9656 6.85548 21.9121 6.89435 21.8567C6.93551 21.7981 6.98356 21.7292 6.99996 21.7056C7.09819 21.5301 8.70107 18.6422 8.70091 18.6426C8.86277 18.3505 9.16615 18.1852 9.47904 18.1853C9.625 18.1853 9.77308 18.2213 9.9097 18.297C10.0747 18.3892 10.2132 18.5235 10.3102 18.6854C10.5094 19.0174 10.5165 19.433 10.3289 19.7693L9.83862 20.6523ZM9.86141 18.9546C9.81058 18.8698 9.74072 18.8022 9.65527 18.7543C9.47865 18.6566 9.25628 18.7202 9.15905 18.8962C8.01209 20.9625 7.62112 21.6667 7.47023 21.9173L7.47368 21.9181C7.46105 21.9601 7.46105 21.9601 7.32297 22.1574C7.27607 22.2241 7.22507 22.2882 7.17308 22.3514C6.35703 23.3401 6.26228 24.5843 6.91938 25.6799C7.32641 26.3585 7.99912 26.8238 8.81366 26.99C9.63705 27.1575 10.5049 27.0017 11.2581 26.5497L15.8988 23.7658C16.0048 23.7024 16.0796 23.6015 16.1094 23.482C16.1393 23.3626 16.1207 23.2384 16.0571 23.1325C15.9262 22.9144 15.642 22.8427 15.4239 22.9741L13.1346 24.3475C13.0106 24.422 12.8496 24.382 12.7753 24.2578C12.7008 24.1338 12.741 23.973 12.865 23.8985L15.1545 22.5251L15.898 22.079C16.004 22.0154 16.0789 21.9145 16.1088 21.7953C16.1386 21.6757 16.1201 21.5514 16.0564 21.4457C15.9254 21.2274 15.6412 21.1564 15.4233 21.2872L12.3902 23.1067C12.2659 23.1814 12.1054 23.141 12.0309 23.017C11.9565 22.8931 11.9968 22.7322 12.1206 22.6577L15.8431 20.4247C15.949 20.361 16.0238 20.2603 16.0537 20.1408C16.0835 20.0214 16.065 19.8973 16.0015 19.7913C15.938 19.6856 15.8372 19.6108 15.7176 19.5809C15.5974 19.5511 15.4738 19.5696 15.3682 19.6329L14.6791 20.0463C14.6789 20.0463 14.6789 20.0465 14.6788 20.0465H14.6786L11.6457 21.866C11.5214 21.9408 11.3607 21.9004 11.2864 21.7763C11.212 21.6523 11.2523 21.4915 11.3761 21.417L14.4092 19.5975C14.5151 19.5339 14.59 19.433 14.6199 19.3138C14.6527 19.1829 14.6278 19.0491 14.55 18.9369C14.4152 18.7419 14.1269 18.6901 13.9083 18.8215L9.27098 21.6035C9.16947 21.6641 9.03943 21.6494 8.95431 21.5672C8.86904 21.4849 8.84985 21.3555 8.90725 21.252L9.87153 19.5147C9.96829 19.341 9.96451 19.1265 9.86136 18.9546L9.86141 18.9546Z" fill="#103E13"/>
<path d="M27.9984 25.9491C27.5151 26.7551 26.7202 27.3068 25.7601 27.5029C24.8084 27.6969 23.8076 27.518 22.9413 26.9986L18.3006 24.2147C18.0748 24.0793 17.9151 23.8641 17.8511 23.6086C17.7877 23.3536 17.8274 23.0887 17.9626 22.8631C18.0471 22.722 18.1655 22.6108 18.3028 22.5287L18.3015 22.5279C18.0756 22.3924 17.9159 22.1772 17.8523 21.9221C17.7883 21.6669 17.828 21.4019 17.9635 21.1759C18.0507 21.0308 18.1703 20.9173 18.3067 20.8368C18.1086 20.7005 17.9659 20.5026 17.9072 20.2677C17.8433 20.0124 17.883 19.7475 18.0184 19.5219C18.1537 19.296 18.369 19.1365 18.6242 19.0727C18.7039 19.0527 18.7848 19.0428 18.8648 19.0428C19.0219 19.043 19.1761 19.0829 19.3177 19.157C19.3264 18.9735 19.381 18.7932 19.4883 18.6386C19.7823 18.2144 20.3714 18.0969 20.8302 18.3723L24.6305 20.6518L24.1406 19.7695C23.9527 19.4326 23.9596 19.0171 24.1588 18.6848C24.2559 18.5231 24.3946 18.3888 24.5604 18.2958C24.6967 18.2204 24.8443 18.1846 24.9899 18.1846C25.3026 18.1848 25.6064 18.3498 25.7681 18.6419C26.3315 19.6572 27.3949 21.5719 27.4696 21.7056C27.4855 21.7287 27.5336 21.7976 27.5747 21.8561C27.6139 21.9117 27.6562 21.9649 27.7 22.0177C28.6489 23.1679 28.7634 24.6742 27.9983 25.9491L27.9984 25.9491ZM27.296 22.3514C27.2439 22.2883 27.1927 22.2238 27.1461 22.1574C27.0044 21.9564 27.0008 21.9511 26.9902 21.8985C26.8245 21.6244 26.4205 20.897 25.3097 18.8959C25.2123 18.7203 24.9909 18.6562 24.8147 18.7536C24.7279 18.8021 24.6582 18.8698 24.6074 18.9546C24.5044 19.1263 24.5004 19.3408 24.5977 19.515L25.5616 21.2518C25.6192 21.3555 25.6 21.4847 25.5149 21.567C25.43 21.6495 25.3001 21.664 25.1981 21.6033L20.5607 18.8213C20.3421 18.6903 20.054 18.7416 19.9189 18.9367C19.8411 19.0489 19.8164 19.1827 19.8488 19.3134C19.8787 19.4328 19.9536 19.5335 20.0597 19.5971C20.0601 19.5973 20.0602 19.5976 20.0606 19.5978L23.0926 21.4168C23.2166 21.4913 23.2568 21.652 23.1823 21.7761C23.1079 21.8999 22.9473 21.9404 22.823 21.8658L19.1006 19.6327C18.9949 19.5694 18.8706 19.5507 18.7512 19.5808C18.6315 19.6106 18.5308 19.6854 18.4674 19.7915C18.4037 19.8973 18.3854 20.0214 18.4149 20.1408C18.4447 20.2602 18.5197 20.361 18.6256 20.4247L19.35 20.8591L22.3479 22.6578C22.4719 22.7322 22.5121 22.8929 22.4376 23.0171C22.3632 23.1409 22.2026 23.1812 22.0783 23.1068L19.0456 21.2873C18.8275 21.1561 18.5435 21.2273 18.4123 21.4457C18.3487 21.5516 18.3303 21.6758 18.3598 21.7952C18.3897 21.9145 18.4646 22.0152 18.5707 22.079L19.3142 22.5251L21.6034 23.8985C21.7274 23.973 21.7676 24.1337 21.6931 24.2578C21.6187 24.3817 21.4581 24.4223 21.3338 24.3475L19.0446 22.9741C18.939 22.9108 18.8152 22.8921 18.6952 22.9221C18.5758 22.952 18.4748 23.0267 18.4113 23.1325C18.3478 23.2385 18.3293 23.3628 18.3588 23.482C18.3887 23.6014 18.4636 23.7021 18.5697 23.7659L23.2104 26.5498C23.9635 27.0016 24.832 27.158 25.6549 26.9901C26.4693 26.8238 27.142 26.3585 27.549 25.6799C28.2068 24.5841 28.1122 23.3398 27.2963 22.3514L27.296 22.3514Z" fill="#103E13"/>
</svg>
