<svg width="12" height="13" viewBox="0 0 12 13" fill="none" xmlns="http://www.w3.org/2000/svg">
<path fill-rule="evenodd" clip-rule="evenodd" d="M5.98912 0.834473C4.37595 0.834473 4.1735 0.841526 3.53992 0.870359C2.90757 0.899316 2.47594 0.999427 2.09826 1.14632C1.7076 1.29803 1.3762 1.50097 1.04604 1.83125C0.71564 2.16141 0.512695 2.49281 0.360486 2.88335C0.213227 3.26115 0.112992 3.6929 0.08453 4.325C0.0561919 4.95859 0.0487671 5.16116 0.0487671 6.77433C0.0487671 8.38749 0.0559444 8.58932 0.0846537 9.22291C0.113734 9.85525 0.213846 10.2869 0.360609 10.6646C0.512447 11.0552 0.715392 11.3866 1.04567 11.7168C1.37571 12.0472 1.7071 12.2506 2.09752 12.4023C2.47545 12.5492 2.9072 12.6493 3.53942 12.6783C4.17301 12.7071 4.37533 12.7142 5.98838 12.7142C7.60166 12.7142 7.8035 12.7071 8.43708 12.6783C9.06943 12.6493 9.50155 12.5492 9.87947 12.4023C10.27 12.2506 10.6009 12.0472 10.931 11.7168C11.2614 11.3866 11.4643 11.0552 11.6165 10.6647C11.7625 10.2869 11.8628 9.85513 11.8925 9.22303C11.9209 8.58945 11.9284 8.38749 11.9284 6.77433C11.9284 5.16116 11.9209 4.95871 11.8925 4.32513C11.8628 3.69278 11.7625 3.26115 11.6165 2.88348C11.4643 2.49281 11.2614 2.16141 10.931 1.83125C10.6005 1.50085 10.2701 1.29791 9.8791 1.14632C9.50044 0.999427 9.06856 0.899316 8.43621 0.870359C7.80263 0.841526 7.60092 0.834473 5.98726 0.834473H5.98912ZM5.45624 1.90487C5.61439 1.90462 5.79085 1.90487 5.98909 1.90487C7.57503 1.90487 7.763 1.91056 8.38929 1.93902C8.96842 1.9655 9.28274 2.06227 9.49212 2.14358C9.76931 2.25124 9.96694 2.37993 10.1747 2.58783C10.3826 2.79572 10.5113 2.99372 10.6192 3.27091C10.7005 3.48004 10.7974 3.79436 10.8238 4.3735C10.8522 4.99966 10.8584 5.18775 10.8584 6.77295C10.8584 8.35815 10.8522 8.54624 10.8238 9.1724C10.7973 9.75154 10.7005 10.0659 10.6192 10.275C10.5115 10.5522 10.3826 10.7496 10.1747 10.9573C9.96681 11.1652 9.76944 11.2939 9.49212 11.4016C9.28299 11.4833 8.96842 11.5798 8.38929 11.6063C7.76313 11.6347 7.57503 11.6409 5.98909 11.6409C4.40303 11.6409 4.21505 11.6347 3.5889 11.6063C3.00976 11.5795 2.69544 11.4828 2.48594 11.4015C2.20875 11.2938 2.01075 11.1651 1.80286 10.9572C1.59496 10.7493 1.46626 10.5518 1.35836 10.2745C1.27705 10.0654 1.18016 9.75104 1.1538 9.17191C1.12534 8.54575 1.11965 8.35765 1.11965 6.77146C1.11965 5.18528 1.12534 4.99817 1.1538 4.37201C1.18028 3.79287 1.27705 3.47856 1.35836 3.26918C1.46602 2.99198 1.59496 2.79399 1.80286 2.58609C2.01075 2.3782 2.20875 2.2495 2.48594 2.1416C2.69532 2.05992 3.00976 1.9634 3.5889 1.93679C4.13685 1.91204 4.3492 1.90462 5.45624 1.90338V1.90487ZM9.15974 2.89113C8.76622 2.89113 8.44696 3.21003 8.44696 3.60367C8.44696 3.99718 8.76622 4.31645 9.15974 4.31645C9.55326 4.31645 9.87252 3.99718 9.87252 3.60367C9.87252 3.21015 9.55326 2.89113 9.15974 2.89113ZM5.98913 3.72395C4.30456 3.72395 2.93876 5.08974 2.93876 6.77431C2.93876 8.45888 4.30456 9.82405 5.98913 9.82405C7.67369 9.82405 9.03899 8.45888 9.03899 6.77431C9.03899 5.08974 7.67369 3.72395 5.98913 3.72395ZM5.9891 4.79436C7.08253 4.79436 7.96906 5.68076 7.96906 6.77431C7.96906 7.86774 7.08253 8.75426 5.9891 8.75426C4.89555 8.75426 4.00915 7.86774 4.00915 6.77431C4.00915 5.68076 4.89555 4.79436 5.9891 4.79436Z" fill="white"/>
</svg>
