<svg width="28" height="20" viewBox="0 0 28 20" fill="none" xmlns="http://www.w3.org/2000/svg">
<path fill-rule="evenodd" clip-rule="evenodd" d="M7.04589 3.08374L0.0950928 9.96465C1.48538 11.341 3.07357 12.5009 4.80514 13.4084C5.28376 14.6652 6.03398 15.8439 7.05579 16.8554C10.9001 20.661 17.1329 20.661 20.9772 16.8554C21.999 15.8439 22.7492 14.6652 23.2278 13.4083C24.9594 12.5009 26.5476 11.341 27.9379 9.96465L20.9927 3.08934C20.9875 3.08419 20.9824 3.07905 20.9772 3.07391C17.1329 -0.73173 10.9001 -0.73173 7.05579 3.07391C7.0525 3.07719 7.04919 3.08046 7.04589 3.08374ZM20.3121 14.6498C18.2865 15.3265 16.1602 15.6731 14.0165 15.6731C11.8728 15.6731 9.74651 15.3265 7.72095 14.6498C7.94042 14.9381 8.18272 15.2147 8.44793 15.4772C11.5234 18.5218 16.5096 18.5218 19.585 15.4772C19.8502 15.2147 20.0926 14.9381 20.3121 14.6498ZM8.59069 4.31424C9.11295 4.65581 9.66828 4.94809 10.2494 5.18639C11.4437 5.67611 12.7237 5.92817 14.0165 5.92817C15.3092 5.92817 16.5893 5.67611 17.7836 5.18639C18.3647 4.94809 18.92 4.6558 19.4423 4.31422C16.4053 1.45348 11.6277 1.45349 8.59069 4.31424Z" fill="#3B4158"/>
</svg>
